<?xml version="1.0" standalone="no"?>
<!DOCTYPE svg PUBLIC "-//W3C//DTD SVG 20010904//EN"
 "http://www.w3.org/TR/2001/REC-SVG-20010904/DTD/svg10.dtd">
<svg version="1.0" xmlns="http://www.w3.org/2000/svg"
 width="88.000000pt" height="101.000000pt" viewBox="0 0 88.000000 101.000000"
 preserveAspectRatio="xMidYMid meet">

<g transform="translate(0.000000,101.000000) scale(0.100000,-0.100000)"
fill="#000000" stroke="none">
<path d="M263 697 c8 -13 45 -72 82 -131 l67 -108 -86 -129 c-47 -71 -86 -131
-86 -135 0 -3 15 -4 32 -2 30 3 39 13 100 112 37 60 69 111 71 113 3 2 35 -48
73 -112 66 -110 70 -115 102 -115 24 0 31 3 26 12 -4 7 -42 67 -84 134 l-77
121 83 132 84 131 -33 0 c-30 -1 -36 -7 -97 -110 -36 -60 -68 -110 -71 -110
-4 0 -35 50 -69 110 -61 107 -64 110 -98 110 -34 0 -34 0 -19 -23z"/>
<path d="M1 424 c0 -11 3 -14 6 -6 3 7 2 16 -1 19 -3 4 -6 -2 -5 -13z"/>
</g>
</svg>
